<?xml version="1.0"?>
<svg width="106.66666666666666" height="106.66666666666666" xmlns="http://www.w3.org/2000/svg" xmlns:xlink="http://www.w3.org/1999/xlink">
 <defs>
  <linearGradient id="linearGradient912">
   <stop stop-color="#f3f3f3" id="stop913" offset="0"/>
   <stop stop-color="#ffffff" id="stop855" offset="0.376504"/>
   <stop stop-color="#e6ffff" id="stop914" offset="1"/>
  </linearGradient>
  <radialGradient id="radialGradient915" xlink:href="#linearGradient912"/>
  <linearGradient y2="-0.140625" x2="-0.47619" y1="0.632813" x1="0.90873" id="linearGradient854" xlink:href="#linearGradient912"/>
 </defs>Clipart by Nicu Buculei - w_cloudNicu Buculei
 <g>
  <title>background</title>
  <rect fill="none" id="canvas_background" height="402" width="582" y="-1" x="-1"/>
 </g>
 <g>
  <title>Layer 1</title>
  <path d="m48.99617,37.25127c-1.037498,-5.1073 -9.810539,-12.592781 -15.065338,-11.19339c-6.580591,1.817169 -9.611732,7.693031 -4.908602,12.122398c-4.161119,-2.816097 -14.54328,-5.239109 -20.17062,4.572021c-3.49318,7.308781 6.39891,11.881321 9.425119,11.340759c-5.7906,-0.696438 -20.057389,11.213764 -13.704999,17.280598c7.82713,6.166786 25.75629,-0.501709 26.54354,-5.652519c-1.74667,7.532082 18.174189,8.978104 18.66699,-1.490295c-1.421772,4.908051 12.791821,10.131729 19.549152,8.13327c8.469017,-2.066284 7.450729,-9.041924 6.448624,-11.168922c6.51413,0.744518 16.71373,2.59082 21.231796,-4.104031c3.149223,-6.326538 1.276924,-13.392818 -2.777054,-15.61554c-4.417152,-2.10178 -9.243538,-1.992249 -14.872856,1.567848c4.466805,-2.907398 1.711876,-12.282848 -2.764847,-14.342459c-5.102028,-2.339199 -11.231796,-2.795719 -16.737206,-1.658381c-4.53635,0.726582 -11.715389,4.55212 -10.863701,10.208641z" fill="#B1FFFF" fill-rule="evenodd" stroke="#000000" stroke-linejoin="round" id="path853"/>
  <path id="svg_1" d="m-22.358017,90.895706" opacity="0.5" stroke-opacity="null" stroke="#000000" fill="#B1FFFF"/>
  <path id="svg_2" d="m81.296791,34.235516" opacity="0.5" stroke-opacity="null" stroke="#000000" fill="#B1FFFF"/>
 </g></svg>