<?xml version="1.0" encoding="utf-8"?>
<!-- Generator: Adobe Illustrator 15.0.0, SVG Export Plug-In . SVG Version: 6.00 Build 0)  -->
<!DOCTYPE svg PUBLIC "-//W3C//DTD SVG 1.1//EN" "http://www.w3.org/Graphics/SVG/1.1/DTD/svg11.dtd">
<svg version="1.1" id="图层_1" xmlns:sketch="http://www.bohemiancoding.com/sketch/ns"
	 xmlns="http://www.w3.org/2000/svg" xmlns:xlink="http://www.w3.org/1999/xlink" x="0px" y="0px" width="1000px" height="618px"
	 viewBox="0 0 1000 618" enable-background="new 0 0 1000 618" xml:space="preserve">
<title>Slice 1</title>
<description>Created with Sketch (http://www.bohemiancoding.com/sketch)</description>
<g id="Page_1" sketch:type="MSPage">
	<path fill="#68A865" d="M985.286,51.264c-9.339,1.951-20.031,3.186-32.172,3.186c-58.664,0-102.386-37.469-179.839-37.469
		S684.579,50.3,580.893,50.3c-103.686,0-146.16-24.554-223.612-24.554S249.846,43.384,191.132,40.271
		c-58.714-3.112-89.945-20.058-154.905-20.058c-12.649,0-24.821,0.763-36.227,1.987v597.768h999.336V47.86
		C994.9,49.627,990.186,50.8,985.286,51.264z"/>
</g>
<g id="Page_1_1_" sketch:type="MSPage">
	<path fill="#68A865" d="M1984.282,51.265c-9.338,1.95-20.028,3.185-32.168,3.185c-58.664,0-102.386-37.469-179.839-37.469
		s-88.696,33.32-192.383,33.32c-103.686,0-146.16-24.554-223.612-24.554s-107.435,17.637-166.148,14.525
		c-53.195-2.82-83.832-16.994-137.433-19.634c-3.49,0.559-6.972,1.189-10.429,1.916c-1.198,0.619-2.423,1.186-3.679,1.687
		c-1.802,1.532-3.854,2.938-6.434,4.12c-2.451,2.251-5.112,4.274-7.948,6.034c-5.142,4.372-11.078,7.699-17.44,9.798
		c-2.471,1.475-5.068,2.748-7.77,3.803v571.974h999.336V47.853C1993.956,49.698,1989.154,50.806,1984.282,51.265z"/>
</g>
<g id="Page_1_2_" sketch:type="MSPage">
	<path fill="#68A865" d="M2950.786,54.45c-58.664,0-102.386-37.469-179.839-37.469s-88.696,33.32-192.383,33.32
		c-103.686,0-146.16-24.554-223.612-24.554s-107.435,17.637-166.148,14.525c-38.957-2.065-65.826-10.214-98.468-15.467
		c-7.113,0.351-14.219,0.863-21.308,1.62c-6.437,1.059-12.819,2.331-19.229,3.628c-4.22,0.855-8.56,1.463-12.859,2.227
		c-2.085,1.02-4.253,1.884-6.476,2.617c-3.017,1.896-6.235,3.484-9.607,4.735c-3.347,1.75-6.892,3.154-10.594,4.144
		c-3.515,1.543-7.141,2.836-10.979,3.66c-0.532,0.24-1.068,0.474-1.613,0.693v571.842h999.336V47.529
		C2984.842,51.517,2969.53,54.45,2950.786,54.45z"/>
</g>
</svg>
