<?xml version="1.0" encoding="utf-8"?>
<!-- Generator: Adobe Illustrator 15.0.0, SVG Export Plug-In . SVG Version: 6.00 Build 0)  -->
<!DOCTYPE svg PUBLIC "-//W3C//DTD SVG 1.1//EN" "http://www.w3.org/Graphics/SVG/1.1/DTD/svg11.dtd">
<svg version="1.1" id="图层_1" xmlns:sketch="http://www.bohemiancoding.com/sketch/ns"
	 xmlns="http://www.w3.org/2000/svg" xmlns:xlink="http://www.w3.org/1999/xlink" x="0px" y="0px" width="2991.791px"
	 height="618px" viewBox="0 0 2991.791 618" enable-background="new 0 0 2991.791 618" xml:space="preserve">
<title>Slice 1</title>
<description>Created with Sketch (http://www.bohemiancoding.com/sketch)</description>
<g id="Page_1" sketch:type="MSPage">
	<path fill="#16A085" d="M991.677,30.643c-0.541-0.228-1.081-0.456-1.622-0.685c-0.401-0.166-0.81-0.32-1.213-0.482
		c-3.724-0.691-7.399-1.599-10.986-2.886c-4.006-1.438-7.937-3.059-11.878-4.662c-6.964-1.857-14.021-3.387-21.116-4.714
		c-1.766,0.188-3.554,0.286-5.36,0.286c-1.352,0-2.688-0.07-4.016-0.176c-50.803,4.468-42.548,24.06-133.308,24.06
		c-98.735,0-74.006-9.384-154.006-9.384s-95.828-18.629-167.034-18.629S366.195,36.513,333.715,36.513
		c-32.479,0-82.455-26.796-148.665-24.665c-66.21,2.131-54.958,23.447-116.171,23.447c-25.891,0-49.77-1.362-68.708-2.934v585.608
		h999.336V32.144C996.896,31.84,994.287,31.344,991.677,30.643z"/>
</g>
<g id="Page_1_1_" sketch:type="MSPage">
	<path fill="#16A085" d="M1984.692,31.75c-17.719-3.014-35.027-7.941-52.541-11.884c-2.688-0.259-5.315-0.747-7.878-1.413
		c-1.242,0.092-2.491,0.155-3.755,0.155c-0.139,0-0.275-0.01-0.416-0.011c-39.411,6.078-38.777,22.788-122.59,22.788
		c-98.735,0-74.006-9.384-154.006-9.384s-95.828-18.629-167.034-18.629s-114.941,23.142-147.423,23.142
		c-32.479,0-82.455-26.796-148.664-24.665c-66.211,2.131-54.959,23.447-116.172,23.447c-25.891,0-49.77-1.362-68.707-2.934V617.97
		h999.336V33.001C1991.534,32.777,1988.16,32.339,1984.692,31.75z"/>
</g>
<g id="Page_1_2_" sketch:type="MSPage">
	<path fill="#16A085" d="M2950.614,16.416c-77.453,0-53.716,24.969-156.153,24.969c-98.736,0-74.006-9.384-154.006-9.384
		s-95.828-18.629-167.034-18.629s-114.942,23.142-147.423,23.142c-32.479,0-82.455-26.796-148.664-24.665
		c-66.211,2.131-54.959,23.447-116.172,23.447c-21.679,0-41.933-0.956-59.069-2.189c-3.159,0.135-6.363,0.019-9.638-0.299v585.163
		h999.336V19.691C2983.729,17.745,2971.328,16.416,2950.614,16.416z"/>
</g>
</svg>
