<?xml version="1.0" encoding="utf-8"?>
<!-- Generator: Adobe Illustrator 15.0.0, SVG Export Plug-In . SVG Version: 6.00 Build 0)  -->
<!DOCTYPE svg PUBLIC "-//W3C//DTD SVG 1.1//EN" "http://www.w3.org/Graphics/SVG/1.1/DTD/svg11.dtd">
<svg version="1.1" id="图层_1" xmlns:sketch="http://www.bohemiancoding.com/sketch/ns"
	 xmlns="http://www.w3.org/2000/svg" xmlns:xlink="http://www.w3.org/1999/xlink" x="0px" y="0px" width="2993.357px"
	 height="618px" viewBox="0 0 2993.357 618" enable-background="new 0 0 2993.357 618" xml:space="preserve">
<title>Slice 1</title>
<g id="Page_1" sketch:type="MSPage">
	<path fill="#91D168" d="M996.287,80.025c-6.469,1.325-16.229,2.317-30.631,1.737C931.979,80.406,833.908,39.035,684,37
		c-149.909-2.035-198.05,43.406-299.236,42.388C283.576,78.371,246.099,54.63,136.167,45.473C67.02,39.713,23.086,41.736,0,44.03
		v573.939h999.679V79.313c-0.063,0.012-0.128,0.023-0.19,0.035C998.426,79.605,997.36,79.836,996.287,80.025z"/>
</g>
<g id="Page_1_1_" sketch:type="MSPage">
	<path fill="#91D168" d="M1988.493,82.834c-0.748,0-1.491-0.025-2.232-0.058c-6.287,0.334-12.582,0.181-18.713-0.669
		c-1.237-0.056-2.462-0.161-3.677-0.305c-0.406-0.014-0.8-0.023-1.215-0.04C1928.979,80.406,1830.908,39.035,1681,37
		c-149.909-2.035-198.05,43.406-299.236,42.388c-101.188-1.017-138.665-24.758-248.597-33.916
		c-13.065-1.088-25.203-1.892-36.489-2.473c-3.119,0.512-6.106,0.835-9.052,0.969c-1.694,0.731-3.42,1.397-5.196,1.944
		c-16.663,7.506-33.193,15.289-50.208,22.039c-7.227,2.867-14.593,5.603-22.142,7.561c-2.975,1.454-6.037,2.623-9.096,3.464
		c-1.316,0.362-2.647,0.655-3.984,0.91v538.082h999.679V82.162C1994.007,82.6,1991.273,82.834,1988.493,82.834z"/>
</g>
<g id="Page_1_2_" sketch:type="MSPage">
	<path fill="#91D168" d="M2959.335,81.762c-33.678-1.356-131.748-42.727-281.656-44.762
		c-149.909-2.035-198.05,43.406-299.235,42.388c-98.188-0.987-136.407-23.365-239.021-33.059c-3.52,0.636-7.07,1.131-10.627,1.448
		c-7.785,1.841-15.53,3.862-23.263,5.911c-8.909,2.361-17.813,4.759-26.783,6.873c-7.454,1.757-15.065,2.935-22.466,4.894
		c-13.935,3.689-27.367,9.092-41.385,12.488c-3.324,0.806-6.75,1.561-10.24,2.232c-3.521,1.182-7.192,2.002-10.979,2.392v535.401
		h999.679V79.232C2987.1,80.911,2976.513,82.454,2959.335,81.762z"/>
</g>
</svg>
