<?xml version="1.0" encoding="utf-8"?>
<!-- Generator: Adobe Illustrator 15.0.0, SVG Export Plug-In . SVG Version: 6.00 Build 0)  -->
<!DOCTYPE svg PUBLIC "-//W3C//DTD SVG 1.1//EN" "http://www.w3.org/Graphics/SVG/1.1/DTD/svg11.dtd">
<svg version="1.1" id="图层_1" xmlns:sketch="http://www.bohemiancoding.com/sketch/ns"
	 xmlns="http://www.w3.org/2000/svg" xmlns:xlink="http://www.w3.org/1999/xlink" x="0px" y="0px" width="1000px" height="618px"
	 viewBox="0 0 1000 618" enable-background="new 0 0 1000 618" xml:space="preserve">
<title>Slice 1</title>
<g id="Page_1" sketch:type="MSPage">
	<path id="Shape" sketch:type="MSShapeGroup" fill="#66CC99" d="M684,37c-149.909-2.035-198.05,43.406-299.236,42.388
		C283.576,78.371,246.099,54.63,136.167,45.473C67.02,39.713,23.086,41.736,0,44.03v573.939h999.679V79.232
		c-6.259,1.678-16.845,3.222-34.022,2.53C931.979,80.406,833.908,39.035,684,37z"/>
</g>
<g id="Page_1_1_" sketch:type="MSPage">
	<path fill="#66CC99" d="M1968.786,81.866c-1.019-0.026-2.062-0.061-3.13-0.104C1931.979,80.406,1833.908,39.035,1684,37
		c-149.909-2.035-198.05,43.406-299.236,42.388c-101.188-1.017-138.665-24.758-248.597-33.916
		c-13.065-1.088-25.203-1.892-36.489-2.473c-3.119,0.512-6.107,0.835-9.052,0.969c-1.694,0.731-3.42,1.397-5.196,1.944
		c-16.663,7.506-33.194,15.289-50.208,22.039c-8.725,3.461-17.646,6.753-26.854,8.685c-2.882,0.604-5.655,1.116-8.367,1.545v539.787
		h999.679V81.806C1989.406,83.161,1978.848,83.493,1968.786,81.866z"/>
</g>
<g id="Page_1_2_" sketch:type="MSPage">
	<path fill="#66CC99" d="M2964.335,81.762c-33.678-1.356-131.748-42.727-281.656-44.762
		c-149.909-2.035-198.05,43.406-299.236,42.388c-98.187-0.987-136.407-23.365-239.021-33.059c-3.52,0.636-7.07,1.131-10.627,1.448
		c-7.785,1.841-15.53,3.862-23.263,5.911c-8.909,2.361-17.812,4.759-26.783,6.873c-7.454,1.757-15.065,2.935-22.466,4.894
		c-13.934,3.689-27.367,9.092-41.385,12.488c-6.755,1.637-13.922,3.076-21.22,3.989v536.036h999.679V79.232
		C2992.099,80.911,2981.513,82.454,2964.335,81.762z"/>
</g>
</svg>
