<?xml version="1.0" encoding="utf-8"?>
<!-- Generator: Adobe Illustrator 15.0.0, SVG Export Plug-In . SVG Version: 6.00 Build 0)  -->
<!DOCTYPE svg PUBLIC "-//W3C//DTD SVG 1.1//EN" "http://www.w3.org/Graphics/SVG/1.1/DTD/svg11.dtd">
<svg version="1.1" id="图层_1" xmlns:sketch="http://www.bohemiancoding.com/sketch/ns"
	 xmlns="http://www.w3.org/2000/svg" xmlns:xlink="http://www.w3.org/1999/xlink" x="0px" y="0px" width="2993.008px"
	 height="618px" viewBox="0 0 2993.008 618" enable-background="new 0 0 2993.008 618" xml:space="preserve">
<title>Slice 1</title>
<description>Created with Sketch (http://www.bohemiancoding.com/sketch)</description>
<g id="Page_1" sketch:type="MSPage">
	<path fill="#03C9A9" d="M984.424,51.433c-9.137,1.85-19.536,3.017-31.31,3.017c-58.664,0-102.386-37.469-179.839-37.469
		S684.579,50.3,580.893,50.3c-103.686,0-146.159-24.554-223.611-24.554S249.846,43.384,191.132,40.271
		c-58.714-3.112-89.945-20.058-154.905-20.058C23.578,20.213,11.406,20.976,0,22.2v597.768h999.336V48.383
		C994.625,50.109,989.616,51.168,984.424,51.433z"/>
</g>
<g id="Page_1_1_" sketch:type="MSPage">
	<path fill="#03C9A9" d="M1982.282,51.265c-9.338,1.95-20.028,3.185-32.168,3.185c-58.664,0-102.386-37.469-179.839-37.469
		s-88.696,33.32-192.383,33.32s-146.16-24.554-223.612-24.554s-107.436,17.637-166.148,14.525
		c-53.194-2.82-83.832-16.994-137.433-19.634c-3.49,0.559-6.973,1.189-10.429,1.916c-1.198,0.619-2.423,1.186-3.68,1.687
		c-1.802,1.532-3.854,2.938-6.434,4.12c-2.451,2.251-5.112,4.274-7.948,6.034c-2.544,2.163-5.287,4.058-8.176,5.684
		c-5.029,4.02-10.791,7.146-17.034,9.099V619.97h999.336V47.853C1991.956,49.698,1987.154,50.806,1982.282,51.265z"/>
</g>
<g id="Page_1_2_" sketch:type="MSPage">
	<path fill="#03C9A9" d="M2946.786,54.45c-58.664,0-102.386-37.469-179.839-37.469s-88.696,33.32-192.384,33.32
		c-103.686,0-146.159-24.554-223.612-24.554c-77.451,0-107.435,17.637-166.147,14.525c-38.957-2.065-65.826-10.214-98.468-15.467
		c-7.113,0.351-14.219,0.863-21.309,1.62c-6.437,1.059-12.818,2.331-19.229,3.628c-4.221,0.855-8.561,1.463-12.859,2.227
		c-2.085,1.02-4.253,1.884-6.476,2.617c-3.018,1.896-6.235,3.484-9.607,4.735c-3.347,1.75-6.892,3.154-10.594,4.144
		c-1.525,0.669-3.076,1.28-4.651,1.837c-2.542,1.244-5.199,2.273-7.939,3.091v571.267h999.336V47.529
		C2980.842,51.517,2965.53,54.45,2946.786,54.45z"/>
</g>
</svg>
